@startuml class

class MessageBoard {
    + fetchRooms() : Room[*]
    + createRoom() : void
    + deleteRoom() : void
    + archiveRoom() : void
    + importRoom() : Room
    + updateRoom(room_id : string, room : Room) : void
}

class Room {
    + title : string
    + public_start_unixtime : number? (milli seconds)
    + public_end_unixtime : number? (milli seconds)
    + post_start_unixtime : number? (milli seconds)
    + post_end_unixtime : number? (milli seconds)
    --
    + isPublicNow() : bool
    + canPostNow() : bool
    + fetchMessages() : Message[*]
    + postMessage() : void
    + deleteMessage() : void
    + hideMessage() : void
}
MessageBoard "1" o-- "*" Room : created <

class Message {
    + user_id : string
    + nickname : string
    + text : string
    + timestamp : number
    + is_hide: bool?
    --
    + react() : void
    + isReactedBy(user_id : string) : bool
    + isPostedBy(user_id : string) : bool
}
Room "1" o-- "*" Message : posted <

class Reaction {
    + {user_id} (dynamic property) : bool (always true)
    --
}
Message "1" o-- "*" Reaction : reacted <

@enduml